<?xml version="1.0" encoding="UTF-8"?>
<!DOCTYPE svg PUBLIC "-//W3C//DTD SVG 1.1//EN" "http://www.w3.org/Graphics/SVG/1.1/DTD/svg11.dtd">
<svg xmlns="http://www.w3.org/2000/svg" version="1.1" width="512px" height="512px" style="shape-rendering:geometricPrecision; text-rendering:geometricPrecision; image-rendering:optimizeQuality; fill-rule:evenodd; clip-rule:evenodd" xmlns:xlink="http://www.w3.org/1999/xlink">
<g><path style="opacity:1" fill="#f0effa" d="M -0.5,-0.5 C 170.167,-0.5 340.833,-0.5 511.5,-0.5C 511.5,170.167 511.5,340.833 511.5,511.5C 341.833,511.5 172.167,511.5 2.5,511.5C 2.55688,510.391 2.89022,509.391 3.5,508.5C 171.5,508.5 339.5,508.5 507.5,508.5C 507.5,340.5 507.5,172.5 507.5,4.5C 339.334,3.50033 171.001,3.167 2.5,3.5C 1.50033,172.666 1.167,341.999 1.5,511.5C 0.833333,511.5 0.166667,511.5 -0.5,511.5C -0.5,340.833 -0.5,170.167 -0.5,-0.5 Z"/></g>
<g><path style="opacity:1" fill="#aaaaf6" d="M 2.5,3.5 C 171.001,3.167 339.334,3.50033 507.5,4.5C 339.5,4.5 171.5,4.5 3.5,4.5C 3.5,172.5 3.5,340.5 3.5,508.5C 2.50033,340.334 2.167,172.001 2.5,3.5 Z"/></g>
<g><path style="opacity:1" fill="#e9e9e2" d="M 2.5,3.5 C 2.167,172.001 2.50033,340.334 3.5,508.5C 2.89022,509.391 2.55688,510.391 2.5,511.5C 2.16667,511.5 1.83333,511.5 1.5,511.5C 1.167,341.999 1.50033,172.666 2.5,3.5 Z"/></g>
<g><path style="opacity:1" fill="#4140ff" d="M 507.5,4.5 C 507.5,172.5 507.5,340.5 507.5,508.5C 339.5,508.5 171.5,508.5 3.5,508.5C 3.5,340.5 3.5,172.5 3.5,4.5C 171.5,4.5 339.5,4.5 507.5,4.5 Z"/></g>
<g><path style="opacity:1" fill="#969aff" d="M 4.5,5.5 C 171.833,5.5 339.167,5.5 506.5,5.5C 506.5,172.833 506.5,340.167 506.5,507.5C 339.167,507.5 171.833,507.5 4.5,507.5C 4.5,340.167 4.5,172.833 4.5,5.5 Z"/></g>
<g><path style="opacity:1" fill="#fafffe" d="M 5.5,6.5 C 172.167,6.5 338.833,6.5 505.5,6.5C 505.5,173.167 505.5,339.833 505.5,506.5C 338.833,506.5 172.167,506.5 5.5,506.5C 5.5,339.833 5.5,173.167 5.5,6.5 Z"/></g>
<g><path style="opacity:1" fill="#eff7fe" d="M 6.5,7.5 C 172.5,7.5 338.5,7.5 504.5,7.5C 504.5,173.5 504.5,339.5 504.5,505.5C 338.5,505.5 172.5,505.5 6.5,505.5C 6.5,339.5 6.5,173.5 6.5,7.5 Z"/></g>
<g><path style="opacity:1" fill="#fe5555" d="M 403.5,334.5 C 449.383,334.237 477.883,356.237 489,400.5C 492.486,439.708 476.653,467.875 441.5,485C 401.428,498.086 369.261,487.586 345,453.5C 325.468,415.214 331.301,381.38 362.5,352C 374.815,342.838 388.481,337.005 403.5,334.5 Z"/></g>
<g><path style="opacity:1" fill="#fe5555" d="M 90.5,334.5 C 138.55,334.256 167.383,357.589 177,404.5C 178.234,446.568 159.068,474.402 119.5,488C 83.28,495.707 54.4466,484.541 33,454.5C 13.7183,417.945 18.2183,384.778 46.5,355C 59.3371,344.079 74.0038,337.246 90.5,334.5 Z"/></g>
<g><path style="opacity:1" fill="#5555ff" d="M 200.5,178.5 C 236.835,178.333 273.168,178.5 309.5,179C 321.559,182.059 329.392,189.559 333,201.5C 333.667,237.833 333.667,274.167 333,310.5C 329.833,323 322,330.833 309.5,334C 273.167,334.667 236.833,334.667 200.5,334C 188.559,330.392 181.059,322.559 178,310.5C 177.333,274.167 177.333,237.833 178,201.5C 181.684,189.984 189.184,182.317 200.5,178.5 Z"/></g>
<g><path style="opacity:1" fill="#fafaff" d="M 240.5,211.5 C 242.903,211.393 244.736,212.393 246,214.5C 246.667,224.833 246.667,235.167 246,245.5C 244,246.833 242,246.833 240,245.5C 239.478,239.034 238.311,232.701 236.5,226.5C 223.715,239.676 221.049,254.676 228.5,271.5C 235.929,283.155 246.595,287.988 260.5,286C 279.071,283.429 288.404,272.762 288.5,254C 288.824,244.968 285.991,237.135 280,230.5C 280.265,227.18 281.931,224.513 285,222.5C 298.569,237.012 301.903,253.679 295,272.5C 286.874,288.49 273.707,296.157 255.5,295.5C 226.452,293.283 212.952,277.616 215,248.5C 216.306,237.887 220.806,228.887 228.5,221.5C 228.291,220.914 227.957,220.414 227.5,220C 221.535,219.037 215.535,218.537 209.5,218.5C 209.5,216.5 209.5,214.5 209.5,212.5C 220.014,212.828 230.347,212.494 240.5,211.5 Z"/></g>
<g><path style="opacity:1" fill="#fe5555" d="M 399.5,22.5 C 438.687,19.5005 466.854,35.5005 484,70.5C 495.499,104.349 488.666,133.849 463.5,159C 430.284,184.229 396.618,184.896 362.5,161C 334.835,135.506 327.335,105.006 340,69.5C 352.074,43.9178 371.907,28.2512 399.5,22.5 Z"/></g>
<g><path style="opacity:1" fill="#fe5555" d="M 86.5,22.5 C 127.797,19.5488 156.63,36.8821 173,74.5C 183.836,115.98 171.003,147.814 134.5,170C 96.4794,186.064 63.9794,178.564 37,147.5C 20.5139,123.577 17.1806,97.9102 27,70.5C 38.7924,44.3747 58.6257,28.3747 86.5,22.5 Z"/></g>
</svg>
