<?xml version="1.0" standalone="no"?>
<!DOCTYPE svg PUBLIC "-//W3C//DTD SVG 20010904//EN"
 "http://www.w3.org/TR/2001/REC-SVG-20010904/DTD/svg10.dtd">
<svg version="1.0" xmlns="http://www.w3.org/2000/svg"
 width="512.000000pt" height="512.000000pt" viewBox="0 0 512.000000 512.000000"
 preserveAspectRatio="xMidYMid meet">
<metadata>
Created by potrace 1.16, written by Peter Selinger 2001-2019
</metadata>
<g transform="translate(0.000000,512.000000) scale(0.100000,-0.100000)"
fill="#000000" stroke="none">
<path d="M40 2550 l0 -2520 2520 0 2520 0 0 2520 0 2520 -2520 0 -2520 0 0
-2520z m5025 0 l0 -2505 -2505 0 -2505 0 -3 2495 c-1 1372 0 2501 3 2508 3 10
510 12 2507 10 l2503 -3 0 -2505z"/>
<path d="M885 4880 c-185 -27 -373 -133 -487 -274 -348 -432 -154 -1069 377
-1236 108 -34 283 -39 400 -11 289 69 507 287 576 576 28 117 23 292 -11 400
-116 370 -479 600 -855 545z"/>
<path d="M3985 4876 c-288 -56 -516 -259 -605 -541 -34 -108 -39 -283 -11
-400 69 -290 286 -507 576 -576 75 -18 110 -20 210 -16 138 6 216 26 340 90
95 49 239 186 294 280 76 129 119 309 107 448 -34 408 -340 705 -746 724 -57
3 -123 -1 -165 -9z"/>
<path d="M1971 3308 c-74 -28 -142 -97 -170 -171 -20 -56 -21 -70 -21 -587 0
-517 1 -531 21 -587 29 -76 96 -143 172 -172 56 -20 70 -21 587 -21 517 0 531
1 587 21 76 29 143 96 172 172 20 56 21 70 21 587 0 517 -1 531 -21 587 -29
76 -96 143 -172 172 -56 21 -70 21 -590 20 -515 0 -534 -1 -586 -21z m483
-327 c14 -16 16 -39 14 -172 -3 -153 -3 -154 -27 -157 -13 -2 -27 0 -32 5 -5
5 -14 48 -20 96 -7 48 -15 87 -19 87 -11 0 -54 -58 -78 -105 -72 -142 -39
-335 70 -418 55 -42 114 -60 203 -60 86 0 141 16 200 56 142 96 165 332 48
485 l-26 35 34 28 c19 16 37 29 41 29 18 0 91 -121 109 -183 31 -101 24 -239
-16 -320 -45 -90 -96 -141 -183 -184 l-76 -38 -130 0 c-123 0 -135 2 -193 29
-77 35 -154 113 -191 193 -24 53 -26 69 -27 178 0 114 2 123 31 185 17 36 48
85 67 110 36 44 36 45 14 52 -12 3 -44 7 -72 7 -78 2 -95 9 -95 40 0 15 3 31
7 34 3 4 79 7 168 7 145 0 164 -2 179 -19z"/>
<path d="M851 1749 c-138 -27 -275 -97 -376 -191 -396 -370 -312 -1009 165
-1257 430 -224 953 -4 1100 464 34 108 39 283 11 400 -85 355 -393 598 -756
594 -55 -1 -120 -5 -144 -10z"/>
<path d="M3955 1744 c-294 -65 -515 -284 -586 -579 -18 -75 -20 -110 -16 -210
6 -138 26 -216 90 -340 49 -95 186 -239 280 -294 131 -77 308 -118 454 -107
517 42 846 549 674 1037 -41 115 -86 184 -186 284 -98 99 -188 153 -320 195
-93 30 -289 37 -390 14z"/>
</g>
</svg>
